#!OML:ASF I:\Actors\actors\Patient Classification 2\Patient 1\Session 1\actor1.ASF
:FULLY-SPECIFIED
:DEGREES
207
root -1.0766 17.6275 6.5631 -11.4032 -3.45946 -3.14509
lowerback -1.58284 0.605131 0.514321
upperback -0.593922 0.792399 1.58984
thorax 0.263567 0.396949 1.35328
lowerneck -16.4155 -1.43617 -0.997279
upperneck 31.0884 -2.96896 3.3814
head 13.2489 -0.968896 1.01777
rclavicle -3.84524e-015 9.7653e-015
rhumerus -65.2201 28.61 -79.9689
rradius 118.702
rwrist -17.3446
rhand -7.96283 -31.0857
rfingers 7.12502
rthumb 17.9446 -60.2779
lclavicle -3.84524e-015 9.7653e-015
lhumerus -52.3576 -52.8785 68.7602
lradius 121.713
lwrist 50.0289
lhand -4.91794 -15.8562
lfingers 7.12502
lthumb 20.8723 13.041
rfemur 32.99 -0.0510237 18.5751
rtibia -17.5278
rfoot -13.1826 -15.3736
rtoes -3.8757
lfemur 35.7426 -6.7356 -14.7189
ltibia -23.0612
lfoot -2.6263 16.0502
ltoes -13.8945
208
root -1.07842 17.64 6.55885 -11.0818 -3.48812 -3.1361
lowerback -1.33524 0.668118 0.396634
upperback -0.444644 0.879417 1.56624
thorax 0.274539 0.440251 1.39448
lowerneck -16.2733 -1.41674 -1.01457
upperneck 31.1372 -2.88963 3.2497
head 13.2338 -0.954861 0.983135
rclavicle 6.78353e-015 1.67476e-014
rhumerus -64.5845 29.43 -78.3057
rradius 120.118
rwrist -19.7254
rhand -7.23965 -31.9191
rfingers 7.12502
rthumb 18.6403 -61.046
lclavicle 6.78353e-015 1.67476e-014
lhumerus -49.4425 -53.4437 64.8955
lradius 123.003
lwrist 53.7029
lhand -4.68792 -13.9226
lfingers 7.12502
lthumb 21.0932 14.9501
rfemur 32.5223 -0.0127827 18.5797
rtibia -17.3482
rfoot -13.2648 -15.3445
rtoes -3.79925
lfemur 35.324 -6.8454 -14.7558
ltibia -22.955
lfoot -2.59979 16.2271
ltoes -14.1947
209
root -1.0802 17.6535 6.55293 -10.7292 -3.41581 -3.00546
lowerback -1.05733 0.697342 0.143193
upperback -0.312729 0.923117 1.51184
thorax 0.249804 0.461898 1.47873
lowerneck -16.2323 -1.39795 -0.866907
upperneck 31.2368 -2.77133 2.83887
head 13.2531 -0.940537 0.816563
rclavicle 5.2181e-016 -2.33572e-015
rhumerus -63.6419 30.3778 -76.4348
rradius 121.415
rwrist -22.0989
rhand -6.55207 -32.8125
rfingers 7.12502
rthumb 19.3016 -61.8746
lclavicle 5.2181e-016 -2.33572e-015
lhumerus -45.9695 -53.8282 60.631
lradius 124.088
lwrist 57.1019
lhand -4.76532 -12.2572
lfingers 7.12502
lthumb 21.0189 16.6238
rfemur 32.0386 0.0336929 18.4599
rtibia -17.1897
rfoot -13.4372 -15.3599
rtoes -3.34105
lfemur 34.8193 -6.99613 -14.9241
ltibia -22.8109
lfoot -2.59973 16.355
ltoes -14.2879
210
root -1.08118 17.668 6.5448 -10.3517 -3.35362 -2.94609
lowerback -0.716276 0.731619 -0.0238225
upperback -0.200823 0.97222 1.48868
thorax 0.169633 0.48639 1.54526
lowerneck -16.0857 -1.3824 -0.826341
upperneck 31.1497 -2.65769 2.54985
head 13.1754 -0.927126 0.714791
rclavicle 1.40889e-014 6.11263e-015
rhumerus -62.3377 31.3289 -74.2996
rradius 122.539
rwrist -25.3837
rhand -5.80103 -34.0149
rfingers 7.12502
rthumb 20.0236 -63.0032
lclavicle 1.40889e-014 6.11263e-015
lhumerus -41.9888 -53.9472 56.0473
lradius 124.867
lwrist 60.5416
lhand -4.69044 -10.782
lfingers 7.12502
lthumb 21.0908 18.091
rfemur 31.507 0.0151542 18.3899
rtibia -17.0154
rfoot -13.5632 -15.3479
rtoes -3.07987
lfemur 34.2723 -7.15011 -14.9944
ltibia -22.6657
lfoot -2.70766 16.4772
ltoes -13.6454
211
root -1.08112 17.6851 6.53275 -9.95351 -3.31169 -3.01886
lowerback -0.312104 0.773267 -0.0245173
upperback -0.0839116 1.02975 1.48137
thorax 0.0613527 0.515171 1.53349
lowerneck -15.923 -1.3545 -0.755695
upperneck 30.9479 -2.55093 2.31722
head 13.0477 -0.906194 0.628588
rclavicle -1.01877e-014 -7.05686e-015
rhumerus -60.7347 32.2395 -72.0487
rradius 123.492
rwrist -28.8123
rhand -4.71731 -35.5999
rfingers 7.12502
rthumb 21.065 -64.4758
lclavicle -1.01877e-014 -7.05686e-015
lhumerus -37.6783 -53.8017 51.2685
lradius 125.476
lwrist 64.6202
lhand -4.5739 -9.11048
lfingers 7.12502
lthumb 21.2028 19.75
rfemur 30.9199 -0.12673 18.4209
rtibia -16.816
rfoot -13.6165 -15.2692
rtoes -2.89078
lfemur 33.7063 -7.2398 -14.8797
ltibia -22.5483
lfoot -2.75507 16.5119
ltoes -13.2002
212
root -1.08086 17.7025 6.51602 -9.57545 -3.23816 -3.08157
lowerback 0.203752 0.789966 -0.046713
upperback 0.0544621 1.05458 1.48364
thorax -0.0872401 0.527657 1.54163
lowerneck -15.8321 -1.30041 -0.724333
upperneck 30.7296 -2.42253 2.17013
head 12.9314 -0.867867 0.585787
rclavicle 5.57839e-015 1.40143e-014
rhumerus -58.6618 33.0889 -69.4308
rradius 124.111
rwrist -31.4777
rhand -3.95566 -36.5103
rfingers 7.12502
rthumb 21.7965 -65.3029
lclavicle 5.57839e-015 1.40143e-014
lhumerus -33.3348 -53.3083 46.6303
lradius 125.928
lwrist 69.0005
lhand -4.50229 -7.10799
lfingers 7.12502
lthumb 21.2716 21.7447
rfemur 30.3333 -0.259022 18.4594
rtibia -16.5974
rfoot -13.7552 -15.2067
rtoes -2.41529
lfemur 33.1665 -7.37837 -14.79
ltibia -22.4736
lfoot -2.64989 16.5762
ltoes -13.4317
213
root -1.08156 17.7192 6.49517 -9.21643 -3.1422 -3.10731
lowerback 0.848881 0.798513 -0.0998705
upperback 0.179707 1.06914 1.48096
thorax -0.321897 0.535377 1.55987
lowerneck -15.7198 -1.26829 -0.832106
upperneck 30.4339 -2.32716 2.15828
head 12.784 -0.842719 0.614008
rclavicle 5.45415e-015 -6.4605e-015
rhumerus -56.5541 34.2032 -67.029
rradius 124.776
rwrist -34.4288
rhand -4.7456 -37.5771
rfingers 7.12502
rthumb 21.0378 -66.456
lclavicle 5.45415e-015 -6.4605e-015
lhumerus -29.1982 -52.636 42.3826
lradius 126.201
lwrist 72.8417
lhand -4.20623 -5.03679
lfingers 7.12502
lthumb 21.5559 23.7836
rfemur 29.7751 -0.374063 18.4742
rtibia -16.4196
rfoot -13.8133 -15.2235
rtoes -2.17877
lfemur 32.6453 -7.52406 -14.7373
ltibia -22.4305
lfoot -2.50172 16.6806
ltoes -13.51
214
root -1.08209 17.7368 6.46864 -8.8328 -3.02495 -3.15603
lowerback 1.6288 0.825717 -0.0840958
upperback 0.25282 1.1102 1.43848
thorax -0.684056 0.556851 1.49548
lowerneck -15.4837 -1.27063 -0.861345
upperneck 29.9965 -2.31002 2.16728
head 12.5547 -0.842056 0.624342
rclavicle -1.50207e-014 -7.35503e-015
rhumerus -54.1833 35.2199 -64.5141
rradius 125.023
rwrist -35.8554
rhand -5.12496 -37.5388
rfingers 7.12502
rthumb 20.6733 -66.4577
lclavicle -1.50207e-014 -7.35503e-015
lhumerus -25.1944 -52.1107 38.4336
lradius 126.212
lwrist 75.5142
lhand -3.42456 -3.15557
lfingers 7.12502
lthumb 22.3065 25.5769
rfemur 29.2123 -0.577597 18.486
rtibia -16.3314
rfoot -13.6292 -15.3064
rtoes -2.38941
lfemur 32.0814 -7.57785 -14.6171
ltibia -22.4139
lfoot -2.3447 16.7027
ltoes -13.3216
215
root -1.0813 17.7552 6.43366 -8.44461 -2.89339 -3.16594
lowerback 2.57485 0.865933 -0.0905915
upperback 0.376145 1.16813 1.36899
thorax -1.08795 0.586535 1.41256
lowerneck -15.3661 -1.29029 -0.749973
upperneck 29.4417 -2.33167 2.09805
head 12.3034 -0.852915 0.57377
rclavicle -9.56651e-016 -3.8763e-015
rhumerus -51.2923 35.9001 -61.5952
rradius 124.848
rwrist -35.6609
rhand -2.59324 -38.2042
rfingers 7.12502
rthumb 23.1043 -66.8389
lclavicle -9.56651e-016 -3.8763e-015
lhumerus -21.2061 -51.7023 34.7715
lradius 125.941
lwrist 77.6785
lhand -2.31785 -1.40178
lfingers 7.12502
lthumb 23.3685 27.1996
rfemur 28.6392 -0.852864 18.4334
rtibia -16.2942
rfoot -13.3237 -15.4226
rtoes -2.62132
lfemur 31.5067 -7.56337 -14.5155
ltibia -22.4648
lfoot -2.08973 16.6656
ltoes -13.2456
